<svg xmlns="http://www.w3.org/2000/svg" width="805" height="600"><rect width="805" height="600" x="0" y="0" fill="#FFFFFF" id="background"/><g transform="translate(20,20)" id="viz"><g id="nodes"><g transform="translate(383.5,281)"><path id="p_944.5" d="M-5.143516556418883e-14,280A280,280,0,1,1,5.143516556418883e-14,-280A280,280,0,1,1,-5.143516556418883e-14,280Z" fill="none" stroke="#ccc"/><text fill="black" text-anchor="middle" font-family="'Arial', sans-serif" font-size="8" dominant-baseline="middle" x="0" y="-280"/></g><g transform="translate(254.0567605454869,281)" id="2024"><path id="p_680.154139442524" d="M-2.665395609463907e-14,145.09737889703706A145.09737889703706,145.09737889703706,0,1,1,2.665395609463907e-14,-145.09737889703706A145.09737889703706,145.09737889703706,0,1,1,-2.665395609463907e-14,145.09737889703706Z" fill="none" stroke="#ccc"/><text fill="black" text-anchor="middle" font-family="'Arial', sans-serif" font-size="8" dominant-baseline="middle" x="0" y="-145.09737889703706">2024</text></g><g transform="translate(531.327069721262,281)" id="2025"><path id="p_939.0406183515502" d="M-2.327690126080273e-14,126.71354863028816A126.71354863028816,126.71354863028816,0,1,1,2.327690126080273e-14,-126.71354863028816A126.71354863028816,126.71354863028816,0,1,1,-2.327690126080273e-14,126.71354863028816Z" fill="none" stroke="#ccc"/><text fill="black" text-anchor="middle" font-family="'Arial', sans-serif" font-size="8" dominant-baseline="middle" x="0" y="-126.71354863028816">2025</text></g><g transform="translate(406.4082440805894,434.21021619970077)" id="2023"><path id="p_906.127302928152" d="M-1.2033779169682744e-14,65.50884264786184A65.50884264786184,65.50884264786184,0,1,1,1.2033779169682744e-14,-65.50884264786184A65.50884264786184,65.50884264786184,0,1,1,-1.2033779169682744e-14,65.50884264786184Z" fill="none" stroke="#ccc"/><text fill="black" text-anchor="middle" font-family="'Arial', sans-serif" font-size="8" dominant-baseline="middle" x="0" y="-65.50884264786184">2023</text></g><g transform="translate(404.40128864748885,171.8362752102483)" id="2022"><path id="p_611.4769172118317" d="M-6.473364193367193e-15,35.2393533540947A35.2393533540947,35.2393533540947,0,1,1,6.473364193367193e-15,-35.2393533540947A35.2393533540947,35.2393533540947,0,1,1,-6.473364193367193e-15,35.2393533540947Z" fill="none" stroke="#ccc"/><text fill="black" text-anchor="middle" font-family="'Arial', sans-serif" font-size="8" dominant-baseline="middle" x="0" y="-35.2393533540947">2022</text></g><g transform="translate(189.38544724092765,257.4978818346691)" id="Rock"><path id="p_517.7119641501771" d="M-1.3011009184809118e-14,70.82863507458036A70.82863507458036,70.82863507458036,0,1,1,1.3011009184809118e-14,-70.82863507458036A70.82863507458036,70.82863507458036,0,1,1,-1.3011009184809118e-14,70.82863507458036Z" fill="rgb(190, 229, 160)" stroke="none"/></g><g transform="translate(327.858218672621,257.4978818346691)" id="Hard Rock"><path id="p_647.5408552159532" d="M-1.1423154121459137e-14,62.184754708663114A62.184754708663114,62.184754708663114,0,1,1,1.1423154121459137e-14,-62.184754708663114A62.184754708663114,62.184754708663114,0,1,1,-1.1423154121459137e-14,62.184754708663114Z" fill="rgb(253, 190, 112)" stroke="none"/></g><g transform="translate(266.5755017663617,364.2523497926404)" id="Punk"><path id="p_686.277532351258" d="M-1.0185941114396793e-14,55.44968079225587A55.44968079225587,55.44968079225587,0,1,1,1.0185941114396793e-14,-55.44968079225587A55.44968079225587,55.44968079225587,0,1,1,-1.0185941114396793e-14,55.44968079225587Z" fill="rgb(251, 248, 176)" stroke="none"/></g><g transform="translate(264.5774818395864,191.98287692736469)" id="Salsa"><path id="p_480.00226701676957" d="M-4.306208685606908e-15,23.441908249818415A23.441908249818415,23.441908249818415,0,1,1,4.306208685606908e-15,-23.441908249818415A23.441908249818415,23.441908249818415,0,1,1,-4.306208685606908e-15,23.441908249818415Z" fill="rgb(86, 173, 174)" stroke="none"/></g><g transform="translate(224.8500829283287,173.4490323536117)" id="Electrónica"><path id="p_413.2358182544485" d="M-2.743827822764507e-15,14.93670297250803A14.93670297250803,14.93670297250803,0,1,1,2.743827822764507e-15,-14.93670297250803A14.93670297250803,14.93670297250803,0,1,1,-2.743827822764507e-15,14.93670297250803Z" fill="rgb(232, 94, 73)" stroke="none"/></g><g transform="translate(304.3738442060733,180.99216709109996)" id="Ska"><path id="p_497.7508711383721" d="M-2.2750618443619113e-15,12.384859841198828A12.384859841198828,12.384859841198828,0,1,1,2.2750618443619113e-15,-12.384859841198828A12.384859841198828,12.384859841198828,0,1,1,-2.2750618443619113e-15,12.384859841198828Z" fill="rgb(94, 79, 162)" stroke="none"/></g><g transform="translate(210.33281148989988,333.946837235897)" id="Clasica"><path id="p_547.2584904678154" d="M-5.472043506794139e-16,2.9788417420184543A2.9788417420184543,2.9788417420184543,0,1,1,5.472043506794139e-16,-2.9788417420184543A2.9788417420184543,2.9788417420184543,0,1,1,-5.472043506794139e-16,2.9788417420184543Z" fill="rgb(158, 1, 66)" stroke="none"/></g><g transform="translate(486.19249914025045,262.6121022925728)" id="Punk"><path id="p_821.3222908682577" d="M-1.3321283437300006e-14,72.51768943543452A72.51768943543452,72.51768943543452,0,1,1,1.3321283437300006e-14,-72.51768943543452A72.51768943543452,72.51768943543452,0,1,1,-1.3321283437300006e-14,72.51768943543452Z" fill="rgb(251, 248, 176)" stroke="none"/></g><g transform="translate(607.278316850332,262.6121022925728)" id="Hard Rock"><path id="p_912.9991657691019" d="M-7.918948285653975e-15,43.108746626197075A43.108746626197075,43.108746626197075,0,1,1,7.918948285653975e-15,-43.108746626197075A43.108746626197075,43.108746626197075,0,1,1,-7.918948285653975e-15,43.108746626197075Z" fill="rgb(253, 190, 112)" stroke="none"/></g><g transform="translate(572.564043746484,347.4226414711636)" id="Rock"><path id="p_963.0586590429648" d="M-7.912193231719978e-15,43.07197382531712A43.07197382531712,43.07197382531712,0,1,1,7.912193231719978e-15,-43.07197382531712A43.07197382531712,43.07197382531712,0,1,1,-7.912193231719978e-15,43.07197382531712Z" fill="rgb(190, 229, 160)" stroke="none"/></g><g transform="translate(566.7676367612946,208.27735187178942)" id="Ska"><path id="p_794.2513415778839" d="M-3.5281497985715117e-15,19.206352944799796A19.206352944799796,19.206352944799796,0,1,1,3.5281497985715117e-15,-19.206352944799796A19.206352944799796,19.206352944799796,0,1,1,-3.5281497985715117e-15,19.206352944799796Z" fill="rgb(94, 79, 162)" stroke="none"/></g><g transform="translate(536.202689519655,187.3815843797297)" id="Electrónica"><path id="p_735.9435186979786" d="M-2.2703564373714767e-15,12.359244798593833A12.359244798593833,12.359244798593833,0,1,1,2.2703564373714767e-15,-12.359244798593833A12.359244798593833,12.359244798593833,0,1,1,-2.2703564373714767e-15,12.359244798593833Z" fill="rgb(232, 94, 73)" stroke="none"/></g><g transform="translate(514.1067446432897,345.98384583928674)" id="Salsa"><path id="p_870.0342377989815" d="M-1.826618378682835e-15,9.943647316405013A9.943647316405013,9.943647316405013,0,1,1,1.826618378682835e-15,-9.943647316405013A9.943647316405013,9.943647316405013,0,1,1,-1.826618378682835e-15,9.943647316405013Z" fill="rgb(86, 173, 174)" stroke="none"/></g><g transform="translate(595.2364834559653,211.4616595628466)" id="Clasica"><path id="p_810.678787735974" d="M-7.312325717123097e-16,3.9806447171621095A3.9806447171621095,3.9806447171621095,0,1,1,7.312325717123097e-16,-3.9806447171621095A3.9806447171621095,3.9806447171621095,0,1,1,-7.312325717123097e-16,3.9806447171621095Z" fill="rgb(158, 1, 66)" stroke="none"/></g><g transform="translate(376.69046435911207,428.73185312184006)" id="Rock"><path id="p_835.2532594301672" d="M-5.479855136048504e-15,29.830941949215035A29.830941949215035,29.830941949215035,0,1,1,5.479855136048504e-15,-29.830941949215035A29.830941949215035,29.830941949215035,0,1,1,-5.479855136048504e-15,29.830941949215035Z" fill="rgb(190, 229, 160)" stroke="none"/></g><g transform="translate(438.9905697043406,428.73185312184006)" id="Hard Rock"><path id="p_894.7322045737443" d="M-4.9616164144233516e-15,27.009781747563583A27.009781747563583,27.009781747563583,0,1,1,4.9616164144233516e-15,-27.009781747563583A27.009781747563583,27.009781747563583,0,1,1,-4.9616164144233516e-15,27.009781747563583Z" fill="rgb(253, 190, 112)" stroke="none"/></g><g transform="translate(410.309266427437,473.4281155454078)" id="Punk"><path id="p_904.3754029523766" d="M-3.791142949997928e-15,20.638020979531785A20.638020979531785,20.638020979531785,0,1,1,3.791142949997928e-15,-20.638020979531785A20.638020979531785,20.638020979531785,0,1,1,-3.791142949997928e-15,20.638020979531785Z" fill="rgb(251, 248, 176)" stroke="none"/></g><g transform="translate(409.65395989884917,403.59025239852195)" id="Electrónica"><path id="p_819.4110005760662" d="M-1.1328206289784786e-15,6.166788278694954A6.166788278694954,6.166788278694954,0,1,1,1.1328206289784786e-15,-6.166788278694954A6.166788278694954,6.166788278694954,0,1,1,-1.1328206289784786e-15,6.166788278694954Z" fill="rgb(232, 94, 73)" stroke="none"/></g><g transform="translate(396.83481132699467,395.61709794269666)" id="Ska"><path id="p_795.9221548801411" d="M-6.374737768638633e-16,3.470245610449737A3.470245610449737,3.470245610449737,0,1,1,6.374737768638633e-16,-3.470245610449737A3.470245610449737,3.470245610449737,0,1,1,-6.374737768638633e-16,3.470245610449737Z" fill="rgb(94, 79, 162)" stroke="none"/></g><g transform="translate(392.1180505020749,171.8362752102483)" id="Rock"><path id="p_581.4510592725541" d="M-3.2140978125106156e-15,17.49673356023084A17.49673356023084,17.49673356023084,0,1,1,3.2140978125106156e-15,-17.49673356023084A17.49673356023084,17.49673356023084,0,1,1,-3.2140978125106156e-15,17.49673356023084Z" fill="rgb(190, 229, 160)" stroke="none"/></g><g transform="translate(424.6277130319446,171.8362752102483)" id="Hard Rock"><path id="p_606.017535563382" d="M-1.7549581721095434e-15,9.553547321189063A9.553547321189063,9.553547321189063,0,1,1,1.7549581721095434e-15,-9.553547321189063A9.553547321189063,9.553547321189063,0,1,1,-1.7549581721095434e-15,9.553547321189063Z" fill="rgb(253, 190, 112)" stroke="none"/></g><g transform="translate(414.7072203281139,191.42036269411082)" id="Punk"><path id="p_613.0680742431242" d="M-1.2749475537277267e-15,6.940491220899474A6.940491220899474,6.940491220899474,0,1,1,1.2749475537277267e-15,-6.940491220899474A6.940491220899474,6.940491220899474,0,1,1,-1.2749475537277267e-15,6.940491220899474Z" fill="rgb(251, 248, 176)" stroke="none"/></g><g transform="translate(413.0114286751743,162.32575608718903)" id="Electrónica"><path id="p_575.3371847623633" d="M0,0Z" fill="rgb(232, 94, 73)" stroke="none"/></g></g><g id="labels"><g transform="translate(189.38544724092765,257.4978818346691)"><text text-anchor="middle" dominant-baseline="text-before-edge" transform="translate(0,-11.5)"><tspan x="0" y="0" dy="0" style="font-family: Arial, sans-serif; font-size: 10px; fill: black; font-weight: bold;">Rock</tspan><tspan x="0" y="0" dy="12" style="font-family: Arial, sans-serif; font-size: 10px; fill: black; font-weight: normal;">7915</tspan></text></g><g transform="translate(327.858218672621,257.4978818346691)"><text text-anchor="middle" dominant-baseline="text-before-edge" transform="translate(0,-11.5)"><tspan x="0" y="0" dy="0" style="font-family: Arial, sans-serif; font-size: 10px; fill: black; font-weight: bold;">Hard Rock</tspan><tspan x="0" y="0" dy="12" style="font-family: Arial, sans-serif; font-size: 10px; fill: black; font-weight: normal;">6101</tspan></text></g><g transform="translate(266.5755017663617,364.2523497926404)"><text text-anchor="middle" dominant-baseline="text-before-edge" transform="translate(0,-11.5)"><tspan x="0" y="0" dy="0" style="font-family: Arial, sans-serif; font-size: 10px; fill: black; font-weight: bold;">Punk</tspan><tspan x="0" y="0" dy="12" style="font-family: Arial, sans-serif; font-size: 10px; fill: black; font-weight: normal;">4851</tspan></text></g><g transform="translate(264.5774818395864,191.98287692736469)"><text text-anchor="middle" dominant-baseline="text-before-edge" transform="translate(0,-11.5)"><tspan x="0" y="0" dy="0" style="font-family: Arial, sans-serif; font-size: 10px; fill: black; font-weight: bold;">Salsa</tspan><tspan x="0" y="0" dy="12" style="font-family: Arial, sans-serif; font-size: 10px; fill: black; font-weight: normal;">867</tspan></text></g><g transform="translate(224.8500829283287,173.4490323536117)"><text text-anchor="middle" dominant-baseline="text-before-edge" transform="translate(0,-11.5)"><tspan x="0" y="0" dy="0" style="font-family: Arial, sans-serif; font-size: 10px; fill: black; font-weight: bold;">Electrónica</tspan><tspan x="0" y="0" dy="12" style="font-family: Arial, sans-serif; font-size: 10px; fill: black; font-weight: normal;">352</tspan></text></g><g transform="translate(304.3738442060733,180.99216709109996)"><text text-anchor="middle" dominant-baseline="text-before-edge" transform="translate(0,-11.5)"><tspan x="0" y="0" dy="0" style="font-family: Arial, sans-serif; font-size: 10px; fill: black; font-weight: bold;">Ska</tspan><tspan x="0" y="0" dy="12" style="font-family: Arial, sans-serif; font-size: 10px; fill: black; font-weight: normal;">242</tspan></text></g><g transform="translate(210.33281148989988,333.946837235897)"><text text-anchor="middle" dominant-baseline="text-before-edge" transform="translate(0,-11.5)"><tspan x="0" y="0" dy="0" style="font-family: Arial, sans-serif; font-size: 10px; fill: black; font-weight: bold;">Clasica</tspan><tspan x="0" y="0" dy="12" style="font-family: Arial, sans-serif; font-size: 10px; fill: black; font-weight: normal;">14</tspan></text></g><g transform="translate(486.19249914025045,262.6121022925728)"><text text-anchor="middle" dominant-baseline="text-before-edge" transform="translate(0,-11.5)"><tspan x="0" y="0" dy="0" style="font-family: Arial, sans-serif; font-size: 10px; fill: black; font-weight: bold;">Punk</tspan><tspan x="0" y="0" dy="12" style="font-family: Arial, sans-serif; font-size: 10px; fill: black; font-weight: normal;">8297</tspan></text></g><g transform="translate(607.278316850332,262.6121022925728)"><text text-anchor="middle" dominant-baseline="text-before-edge" transform="translate(0,-11.5)"><tspan x="0" y="0" dy="0" style="font-family: Arial, sans-serif; font-size: 10px; fill: black; font-weight: bold;">Hard Rock</tspan><tspan x="0" y="0" dy="12" style="font-family: Arial, sans-serif; font-size: 10px; fill: black; font-weight: normal;">2932</tspan></text></g><g transform="translate(572.564043746484,347.4226414711636)"><text text-anchor="middle" dominant-baseline="text-before-edge" transform="translate(0,-11.5)"><tspan x="0" y="0" dy="0" style="font-family: Arial, sans-serif; font-size: 10px; fill: black; font-weight: bold;">Rock</tspan><tspan x="0" y="0" dy="12" style="font-family: Arial, sans-serif; font-size: 10px; fill: black; font-weight: normal;">2927</tspan></text></g><g transform="translate(566.7676367612946,208.27735187178942)"><text text-anchor="middle" dominant-baseline="text-before-edge" transform="translate(0,-11.5)"><tspan x="0" y="0" dy="0" style="font-family: Arial, sans-serif; font-size: 10px; fill: black; font-weight: bold;">Ska</tspan><tspan x="0" y="0" dy="12" style="font-family: Arial, sans-serif; font-size: 10px; fill: black; font-weight: normal;">582</tspan></text></g><g transform="translate(536.202689519655,187.3815843797297)"><text text-anchor="middle" dominant-baseline="text-before-edge" transform="translate(0,-11.5)"><tspan x="0" y="0" dy="0" style="font-family: Arial, sans-serif; font-size: 10px; fill: black; font-weight: bold;">Electrónica</tspan><tspan x="0" y="0" dy="12" style="font-family: Arial, sans-serif; font-size: 10px; fill: black; font-weight: normal;">241</tspan></text></g><g transform="translate(514.1067446432897,345.98384583928674)"><text text-anchor="middle" dominant-baseline="text-before-edge" transform="translate(0,-11.5)"><tspan x="0" y="0" dy="0" style="font-family: Arial, sans-serif; font-size: 10px; fill: black; font-weight: bold;">Salsa</tspan><tspan x="0" y="0" dy="12" style="font-family: Arial, sans-serif; font-size: 10px; fill: black; font-weight: normal;">156</tspan></text></g><g transform="translate(595.2364834559653,211.4616595628466)"><text text-anchor="middle" dominant-baseline="text-before-edge" transform="translate(0,-11.5)"><tspan x="0" y="0" dy="0" style="font-family: Arial, sans-serif; font-size: 10px; fill: black; font-weight: bold;">Clasica</tspan><tspan x="0" y="0" dy="12" style="font-family: Arial, sans-serif; font-size: 10px; fill: black; font-weight: normal;">25</tspan></text></g><g transform="translate(376.69046435911207,428.73185312184006)"><text text-anchor="middle" dominant-baseline="text-before-edge" transform="translate(0,-11.5)"><tspan x="0" y="0" dy="0" style="font-family: Arial, sans-serif; font-size: 10px; fill: black; font-weight: bold;">Rock</tspan><tspan x="0" y="0" dy="12" style="font-family: Arial, sans-serif; font-size: 10px; fill: black; font-weight: normal;">1404</tspan></text></g><g transform="translate(438.9905697043406,428.73185312184006)"><text text-anchor="middle" dominant-baseline="text-before-edge" transform="translate(0,-11.5)"><tspan x="0" y="0" dy="0" style="font-family: Arial, sans-serif; font-size: 10px; fill: black; font-weight: bold;">Hard Rock</tspan><tspan x="0" y="0" dy="12" style="font-family: Arial, sans-serif; font-size: 10px; fill: black; font-weight: normal;">1151</tspan></text></g><g transform="translate(410.309266427437,473.4281155454078)"><text text-anchor="middle" dominant-baseline="text-before-edge" transform="translate(0,-11.5)"><tspan x="0" y="0" dy="0" style="font-family: Arial, sans-serif; font-size: 10px; fill: black; font-weight: bold;">Punk</tspan><tspan x="0" y="0" dy="12" style="font-family: Arial, sans-serif; font-size: 10px; fill: black; font-weight: normal;">672</tspan></text></g><g transform="translate(409.65395989884917,403.59025239852195)"><text text-anchor="middle" dominant-baseline="text-before-edge" transform="translate(0,-11.5)"><tspan x="0" y="0" dy="0" style="font-family: Arial, sans-serif; font-size: 10px; fill: black; font-weight: bold;">Electrónica</tspan><tspan x="0" y="0" dy="12" style="font-family: Arial, sans-serif; font-size: 10px; fill: black; font-weight: normal;">60</tspan></text></g><g transform="translate(396.83481132699467,395.61709794269666)"><text text-anchor="middle" dominant-baseline="text-before-edge" transform="translate(0,-11.5)"><tspan x="0" y="0" dy="0" style="font-family: Arial, sans-serif; font-size: 10px; fill: black; font-weight: bold;">Ska</tspan><tspan x="0" y="0" dy="12" style="font-family: Arial, sans-serif; font-size: 10px; fill: black; font-weight: normal;">19</tspan></text></g><g transform="translate(392.1180505020749,171.8362752102483)"><text text-anchor="middle" dominant-baseline="text-before-edge" transform="translate(0,-11.5)"><tspan x="0" y="0" dy="0" style="font-family: Arial, sans-serif; font-size: 10px; fill: black; font-weight: bold;">Rock</tspan><tspan x="0" y="0" dy="12" style="font-family: Arial, sans-serif; font-size: 10px; fill: black; font-weight: normal;">483</tspan></text></g><g transform="translate(424.6277130319446,171.8362752102483)"><text text-anchor="middle" dominant-baseline="text-before-edge" transform="translate(0,-11.5)"><tspan x="0" y="0" dy="0" style="font-family: Arial, sans-serif; font-size: 10px; fill: black; font-weight: bold;">Hard Rock</tspan><tspan x="0" y="0" dy="12" style="font-family: Arial, sans-serif; font-size: 10px; fill: black; font-weight: normal;">144</tspan></text></g><g transform="translate(414.7072203281139,191.42036269411082)"><text text-anchor="middle" dominant-baseline="text-before-edge" transform="translate(0,-11.5)"><tspan x="0" y="0" dy="0" style="font-family: Arial, sans-serif; font-size: 10px; fill: black; font-weight: bold;">Punk</tspan><tspan x="0" y="0" dy="12" style="font-family: Arial, sans-serif; font-size: 10px; fill: black; font-weight: normal;">76</tspan></text></g><g transform="translate(413.0114286751743,162.32575608718903)"><text text-anchor="middle" dominant-baseline="text-before-edge" transform="translate(0,-11.5)"><tspan x="0" y="0" dy="0" style="font-family: Arial, sans-serif; font-size: 10px; fill: black; font-weight: bold;">Electrónica</tspan><tspan x="0" y="0" dy="12" style="font-family: Arial, sans-serif; font-size: 10px; fill: black; font-weight: normal;">0</tspan></text></g></g></g></svg>