<svg xmlns="http://www.w3.org/2000/svg" width="805" height="600"><rect width="805" height="600" x="0" y="0" fill="#FFFFFF" id="background"/><g transform="translate(20,20)" id="viz"><g id="nodes"><g transform="translate(383.5,281)"><path id="p_944.5" d="M-5.143516556418883e-14,280A280,280,0,1,1,5.143516556418883e-14,-280A280,280,0,1,1,-5.143516556418883e-14,280Z" fill="none" stroke="#ccc"/><text fill="black" text-anchor="middle" font-family="'Arial', sans-serif" font-size="8" dominant-baseline="middle"><textPath href="#p_944.5" startOffset="50%"/></text></g><g transform="translate(203.18950831167885,273.83101905519294)" id="London"><path id="p_565.3639949485192" d="M-1.6228431719916373e-14,88.34346758164743A88.34346758164743,88.34346758164743,0,1,1,1.6228431719916373e-14,-88.34346758164743A88.34346758164743,88.34346758164743,0,1,1,-1.6228431719916373e-14,88.34346758164743Z" fill="none" stroke="#ccc"/><text fill="black" text-anchor="middle" font-family="'Arial', sans-serif" font-size="8" dominant-baseline="middle"><textPath href="#p_565.3639949485192" startOffset="50%">London</textPath></text></g><g transform="translate(389.5363138074636,273.83101905519294)" id="Beijing"><path id="p_756.1043119037188" d="M-1.703550668178481e-14,92.73697904106227A92.73697904106227,92.73697904106227,0,1,1,1.703550668178481e-14,-92.73697904106227A92.73697904106227,92.73697904106227,0,1,1,-1.703550668178481e-14,92.73697904106227Z" fill="none" stroke="#ccc"/><text fill="black" text-anchor="middle" font-family="'Arial', sans-serif" font-size="8" dominant-baseline="middle"><textPath href="#p_756.1043119037188" startOffset="50%">Beijing</textPath></text></g><g transform="translate(291.91174641434804,437.9839716938679)" id="Sydney"><path id="p_822.8812490285949" d="M-1.7081164921298878e-14,92.98553092037885A92.98553092037885,92.98553092037885,0,1,1,1.7081164921298878e-14,-92.98553092037885A92.98553092037885,92.98553092037885,0,1,1,-1.7081164921298878e-14,92.98553092037885Z" fill="none" stroke="#ccc"/><text fill="black" text-anchor="middle" font-family="'Arial', sans-serif" font-size="8" dominant-baseline="middle"><textPath href="#p_822.8812490285949" startOffset="50%">Sydney</textPath></text></g><g transform="translate(292.05743891083375,116.8201814755387)" id="Barcelona"><path id="p_495.68373614973876" d="M-1.5946024772403175e-14,86.80611576336632A86.80611576336632,86.80611576336632,0,1,1,1.5946024772403175e-14,-86.80611576336632A86.80611576336632,86.80611576336632,0,1,1,-1.5946024772403175e-14,86.80611576336632Z" fill="none" stroke="#ccc"/><text fill="black" text-anchor="middle" font-family="'Arial', sans-serif" font-size="8" dominant-baseline="middle"><textPath href="#p_495.68373614973876" startOffset="50%">Barcelona</textPath></text></g><g transform="translate(480.11088479229073,438.51846655362317)" id="Athens"><path id="p_1008.5773589247889" d="M-1.652318093567267e-14,89.94800757887499A89.94800757887499,89.94800757887499,0,1,1,1.652318093567267e-14,-89.94800757887499A89.94800757887499,89.94800757887499,0,1,1,-1.652318093567267e-14,89.94800757887499Z" fill="none" stroke="#ccc"/><text fill="black" text-anchor="middle" font-family="'Arial', sans-serif" font-size="8" dominant-baseline="middle"><textPath href="#p_1008.5773589247889" startOffset="50%">Athens</textPath></text></g><g transform="translate(462.66679143640226,113.10560501218498)" id="Atlanta"><path id="p_654.3497071841052" d="M-1.4434417811678863e-14,78.57731073551801A78.57731073551801,78.57731073551801,0,1,1,1.4434417811678863e-14,-78.57731073551801A78.57731073551801,78.57731073551801,0,1,1,-1.4434417811678863e-14,78.57731073551801Z" fill="none" stroke="#ccc"/><text fill="black" text-anchor="middle" font-family="'Arial', sans-serif" font-size="8" dominant-baseline="middle"><textPath href="#p_654.3497071841052" startOffset="50%">Atlanta</textPath></text></g><g transform="translate(174.9445360014929,271.35472704330965)" id="USA"><path id="p_501.0230565515985" d="M-1.005259778329475e-14,54.72379350679592A54.72379350679592,54.72379350679592,0,1,1,1.005259778329475e-14,-54.72379350679592A54.72379350679592,54.72379350679592,0,1,1,-1.005259778329475e-14,54.72379350679592Z" fill="#8e5afe" stroke="none"/></g><g transform="translate(260.5739504716787,271.35472704330965)" id="FRA"><path id="p_557.5679396053031" d="M-4.709856037710611e-15,25.63926209031478A25.63926209031478,25.63926209031478,0,1,1,4.709856037710611e-15,-25.63926209031478A25.63926209031478,25.63926209031478,0,1,1,-4.709856037710611e-15,25.63926209031478Z" fill="#2aed79" stroke="none"/></g><g transform="translate(240.8760811648597,321.1151328965923)" id="AUS"><path id="p_584.602917824845" d="M-4.153702595566109e-15,22.611703763392995A22.611703763392995,22.611703763392995,0,1,1,4.153702595566109e-15,-22.611703763392995A22.611703763392995,22.611703763392995,0,1,1,-4.153702595566109e-15,22.611703763392995Z" fill="#fcd840" stroke="none"/></g><g transform="translate(239.6868352708106,225.90884125472283)" id="CHN"><path id="p_484.70605416782587" d="M-3.510519421519579e-15,19.1103776422924A19.1103776422924,19.1103776422924,0,1,1,3.510519421519579e-15,-19.1103776422924A19.1103776422924,19.1103776422924,0,1,1,-3.510519421519579e-15,19.1103776422924Z" fill="#fc355e" stroke="none"/></g><g transform="translate(208.25009500282556,207.43463335672115)" id="NED"><path id="p_427.7711924186672" d="M-2.2202474284517175e-15,12.086464059120503A12.086464059120503,12.086464059120503,0,1,1,2.2202474284517175e-15,-12.086464059120503A12.086464059120503,12.086464059120503,0,1,1,-2.2202474284517175e-15,12.086464059120503Z" fill="#ff7f0e" stroke="none"/></g><g transform="translate(349.65015022471425,273.83101905519294)" id="USA"><path id="p_671.065625865145" d="M-8.741122866941648e-15,47.584456585237795A47.584456585237795,47.584456585237795,0,1,1,8.741122866941648e-15,-47.584456585237795A47.584456585237795,47.584456585237795,0,1,1,-8.741122866941648e-15,47.584456585237795Z" fill="#8e5afe" stroke="none"/></g><g transform="translate(439.75394982923893,273.83101905519294)" id="AUS"><path id="p_750.8379530306437" d="M-6.843262169001814e-15,37.252984146211844A37.252984146211844,37.252984146211844,0,1,1,6.843262169001814e-15,-37.252984146211844A37.252984146211844,37.252984146211844,0,1,1,-6.843262169001814e-15,37.252984146211844Z" fill="#fcd840" stroke="none"/></g><g transform="translate(402.7624124015603,327.43772958423295)" id="NED"><path id="p_752.8118457491862" d="M-4.153702595566109e-15,22.611703763392995A22.611703763392995,22.611703763392995,0,1,1,4.153702595566109e-15,-22.611703763392995A22.611703763392995,22.611703763392995,0,1,1,-4.153702595566109e-15,22.611703763392995Z" fill="#ff7f0e" stroke="none"/></g><g transform="translate(256.17842194953175,437.9839716938679)" id="USA"><path id="p_746.148241225887" d="M-9.549645276428312e-15,51.985847582487445A51.985847582487445,51.985847582487445,0,1,1,9.549645276428312e-15,-51.985847582487445A51.985847582487445,51.985847582487445,0,1,1,-9.549645276428312e-15,51.985847582487445Z" fill="#8e5afe" stroke="none"/></g><g transform="translate(346.53077343337304,437.9839716938679)" id="AUS"><path id="p_817.6148901555198" d="M-6.080397999029215e-15,33.10014502827877A33.10014502827877,33.10014502827877,0,1,1,6.080397999029215e-15,-33.10014502827877A33.10014502827877,33.10014502827877,0,1,1,-6.080397999029215e-15,33.10014502827877Z" fill="#fcd840" stroke="none"/></g><g transform="translate(315.3423484063393,486.2630982012462)" id="NED"><path id="p_820.7158242498779" d="M-3.510519421519579e-15,19.1103776422924A19.1103776422924,19.1103776422924,0,1,1,3.510519421519579e-15,-19.1103776422924A19.1103776422924,19.1103776422924,0,1,1,-3.510519421519579e-15,19.1103776422924Z" fill="#ff7f0e" stroke="none"/></g><g transform="translate(261.0789887225771,116.8201814755387)" id="USA"><path id="p_428.4604769001504" d="M-9.287961362003136e-15,50.56130670203456A50.56130670203456,50.56130670203456,0,1,1,9.287961362003136e-15,-50.56130670203456A50.56130670203456,50.56130670203456,0,1,1,-9.287961362003136e-15,50.56130670203456Z" fill="#8e5afe" stroke="none"/></g><g transform="translate(345.2519250494058,116.8201814755387)" id="EUN"><path id="p_490.4173772766636" d="M-5.206941764558689e-15,28.345270751719134A28.345270751719134,28.345270751719134,0,1,1,5.206941764558689e-15,-28.345270751719134A28.345270751719134,28.345270751719134,0,1,1,-5.206941764558689e-15,28.345270751719134Z" fill="#cff661" stroke="none"/></g><g transform="translate(319.4798274851821,160.4864426893128)" id="CHN"><path id="p_497.05911156803813" d="M-3.1399040251404067e-15,17.092841393543186A17.092841393543186,17.092841393543186,0,1,1,3.1399040251404067e-15,-17.092841393543186A17.092841393543186,17.092841393543186,0,1,1,-3.1399040251404067e-15,17.092841393543186Z" fill="#fc355e" stroke="none"/></g><g transform="translate(442.23991010199904,438.51846655362317)" id="USA"><path id="p_927.5690506711304" d="M-8.598981314853345e-15,46.810674015508205A46.810674015508205,46.810674015508205,0,1,1,8.598981314853345e-15,-46.810674015508205A46.810674015508205,46.810674015508205,0,1,1,-8.598981314853345e-15,46.810674015508205Z" fill="#8e5afe" stroke="none"/></g><g transform="translate(529.5547382443365,438.51846655362317)" id="AUS"><path id="p_1003.3110000517138" d="M-6.473077974977973e-15,35.23779525375416A35.23779525375416,35.23779525375416,0,1,1,6.473077974977973e-15,-35.23779525375416A35.23779525375416,35.23779525375416,0,1,1,-6.473077974977973e-15,35.23779525375416Z" fill="#fcd840" stroke="none"/></g><g transform="translate(493.634734004491,476.93104804185214)" id="NED"><path id="p_982.6522461054637" d="M-2.2202474284517175e-15,12.086464059120503A12.086464059120503,12.086464059120503,0,1,1,2.2202474284517175e-15,-12.086464059120503A12.086464059120503,12.086464059120503,0,1,1,-2.2202474284517175e-15,12.086464059120503Z" fill="#ff7f0e" stroke="none"/></g><g transform="translate(447.94714794074423,113.10560501218498)" id="USA"><path id="p_619.6440613197142" d="M-1.0763048737385792e-14,58.591308366784865A58.591308366784865,58.591308366784865,0,1,1,1.0763048737385792e-14,-58.591308366784865A58.591308366784865,58.591308366784865,0,1,1,-1.0763048737385792e-14,58.591308366784865Z" fill="#8e5afe" stroke="none"/></g><g transform="translate(523.8912792397247,113.10560501218498)" id="AUS"><path id="p_649.0833483110302" d="M-2.2202474284517175e-15,12.086464059120503A12.086464059120503,12.086464059120503,0,1,1,2.2202474284517175e-15,-12.086464059120503A12.086464059120503,12.086464059120503,0,1,1,-2.2202474284517175e-15,12.086464059120503Z" fill="#fcd840" stroke="none"/></g></g><g id="labels"><g transform="translate(174.9445360014929,271.35472704330965)"><text text-anchor="middle" dominant-baseline="text-before-edge" transform="translate(0,-11.5)"><tspan x="0" y="0" dy="0" style="font-family: Arial, sans-serif; font-size: 10px; fill: black; font-weight: bold;">USA</tspan><tspan x="0" y="0" dy="12" style="font-family: Arial, sans-serif; font-size: 10px; fill: black; font-weight: normal;">41</tspan></text></g><g transform="translate(260.5739504716787,271.35472704330965)"><text text-anchor="middle" dominant-baseline="text-before-edge" transform="translate(0,-11.5)"><tspan x="0" y="0" dy="0" style="font-family: Arial, sans-serif; font-size: 10px; fill: black; font-weight: bold;">FRA</tspan><tspan x="0" y="0" dy="12" style="font-family: Arial, sans-serif; font-size: 10px; fill: black; font-weight: normal;">9</tspan></text></g><g transform="translate(240.8760811648597,321.1151328965923)"><text text-anchor="middle" dominant-baseline="text-before-edge" transform="translate(0,-11.5)"><tspan x="0" y="0" dy="0" style="font-family: Arial, sans-serif; font-size: 10px; fill: black; font-weight: bold;">AUS</tspan><tspan x="0" y="0" dy="12" style="font-family: Arial, sans-serif; font-size: 10px; fill: black; font-weight: normal;">7</tspan></text></g><g transform="translate(239.6868352708106,225.90884125472283)"><text text-anchor="middle" dominant-baseline="text-before-edge" transform="translate(0,-11.5)"><tspan x="0" y="0" dy="0" style="font-family: Arial, sans-serif; font-size: 10px; fill: black; font-weight: bold;">CHN</tspan><tspan x="0" y="0" dy="12" style="font-family: Arial, sans-serif; font-size: 10px; fill: black; font-weight: normal;">5</tspan></text></g><g transform="translate(208.25009500282556,207.43463335672115)"><text text-anchor="middle" dominant-baseline="text-before-edge" transform="translate(0,-11.5)"><tspan x="0" y="0" dy="0" style="font-family: Arial, sans-serif; font-size: 10px; fill: black; font-weight: bold;">NED</tspan><tspan x="0" y="0" dy="12" style="font-family: Arial, sans-serif; font-size: 10px; fill: black; font-weight: normal;">2</tspan></text></g><g transform="translate(349.65015022471425,273.83101905519294)"><text text-anchor="middle" dominant-baseline="text-before-edge" transform="translate(0,-11.5)"><tspan x="0" y="0" dy="0" style="font-family: Arial, sans-serif; font-size: 10px; fill: black; font-weight: bold;">USA</tspan><tspan x="0" y="0" dy="12" style="font-family: Arial, sans-serif; font-size: 10px; fill: black; font-weight: normal;">31</tspan></text></g><g transform="translate(439.75394982923893,273.83101905519294)"><text text-anchor="middle" dominant-baseline="text-before-edge" transform="translate(0,-11.5)"><tspan x="0" y="0" dy="0" style="font-family: Arial, sans-serif; font-size: 10px; fill: black; font-weight: bold;">AUS</tspan><tspan x="0" y="0" dy="12" style="font-family: Arial, sans-serif; font-size: 10px; fill: black; font-weight: normal;">19</tspan></text></g><g transform="translate(402.7624124015603,327.43772958423295)"><text text-anchor="middle" dominant-baseline="text-before-edge" transform="translate(0,-11.5)"><tspan x="0" y="0" dy="0" style="font-family: Arial, sans-serif; font-size: 10px; fill: black; font-weight: bold;">NED</tspan><tspan x="0" y="0" dy="12" style="font-family: Arial, sans-serif; font-size: 10px; fill: black; font-weight: normal;">7</tspan></text></g><g transform="translate(256.17842194953175,437.9839716938679)"><text text-anchor="middle" dominant-baseline="text-before-edge" transform="translate(0,-11.5)"><tspan x="0" y="0" dy="0" style="font-family: Arial, sans-serif; font-size: 10px; fill: black; font-weight: bold;">USA</tspan><tspan x="0" y="0" dy="12" style="font-family: Arial, sans-serif; font-size: 10px; fill: black; font-weight: normal;">37</tspan></text></g><g transform="translate(346.53077343337304,437.9839716938679)"><text text-anchor="middle" dominant-baseline="text-before-edge" transform="translate(0,-11.5)"><tspan x="0" y="0" dy="0" style="font-family: Arial, sans-serif; font-size: 10px; fill: black; font-weight: bold;">AUS</tspan><tspan x="0" y="0" dy="12" style="font-family: Arial, sans-serif; font-size: 10px; fill: black; font-weight: normal;">15</tspan></text></g><g transform="translate(315.3423484063393,486.2630982012462)"><text text-anchor="middle" dominant-baseline="text-before-edge" transform="translate(0,-11.5)"><tspan x="0" y="0" dy="0" style="font-family: Arial, sans-serif; font-size: 10px; fill: black; font-weight: bold;">NED</tspan><tspan x="0" y="0" dy="12" style="font-family: Arial, sans-serif; font-size: 10px; fill: black; font-weight: normal;">5</tspan></text></g><g transform="translate(261.0789887225771,116.8201814755387)"><text text-anchor="middle" dominant-baseline="text-before-edge" transform="translate(0,-11.5)"><tspan x="0" y="0" dy="0" style="font-family: Arial, sans-serif; font-size: 10px; fill: black; font-weight: bold;">USA</tspan><tspan x="0" y="0" dy="12" style="font-family: Arial, sans-serif; font-size: 10px; fill: black; font-weight: normal;">35</tspan></text></g><g transform="translate(345.2519250494058,116.8201814755387)"><text text-anchor="middle" dominant-baseline="text-before-edge" transform="translate(0,-11.5)"><tspan x="0" y="0" dy="0" style="font-family: Arial, sans-serif; font-size: 10px; fill: black; font-weight: bold;">EUN</tspan><tspan x="0" y="0" dy="12" style="font-family: Arial, sans-serif; font-size: 10px; fill: black; font-weight: normal;">11</tspan></text></g><g transform="translate(319.4798274851821,160.4864426893128)"><text text-anchor="middle" dominant-baseline="text-before-edge" transform="translate(0,-11.5)"><tspan x="0" y="0" dy="0" style="font-family: Arial, sans-serif; font-size: 10px; fill: black; font-weight: bold;">CHN</tspan><tspan x="0" y="0" dy="12" style="font-family: Arial, sans-serif; font-size: 10px; fill: black; font-weight: normal;">4</tspan></text></g><g transform="translate(442.23991010199904,438.51846655362317)"><text text-anchor="middle" dominant-baseline="text-before-edge" transform="translate(0,-11.5)"><tspan x="0" y="0" dy="0" style="font-family: Arial, sans-serif; font-size: 10px; fill: black; font-weight: bold;">USA</tspan><tspan x="0" y="0" dy="12" style="font-family: Arial, sans-serif; font-size: 10px; fill: black; font-weight: normal;">30</tspan></text></g><g transform="translate(529.5547382443365,438.51846655362317)"><text text-anchor="middle" dominant-baseline="text-before-edge" transform="translate(0,-11.5)"><tspan x="0" y="0" dy="0" style="font-family: Arial, sans-serif; font-size: 10px; fill: black; font-weight: bold;">AUS</tspan><tspan x="0" y="0" dy="12" style="font-family: Arial, sans-serif; font-size: 10px; fill: black; font-weight: normal;">17</tspan></text></g><g transform="translate(493.634734004491,476.93104804185214)"><text text-anchor="middle" dominant-baseline="text-before-edge" transform="translate(0,-11.5)"><tspan x="0" y="0" dy="0" style="font-family: Arial, sans-serif; font-size: 10px; fill: black; font-weight: bold;">NED</tspan><tspan x="0" y="0" dy="12" style="font-family: Arial, sans-serif; font-size: 10px; fill: black; font-weight: normal;">2</tspan></text></g><g transform="translate(447.94714794074423,113.10560501218498)"><text text-anchor="middle" dominant-baseline="text-before-edge" transform="translate(0,-11.5)"><tspan x="0" y="0" dy="0" style="font-family: Arial, sans-serif; font-size: 10px; fill: black; font-weight: bold;">USA</tspan><tspan x="0" y="0" dy="12" style="font-family: Arial, sans-serif; font-size: 10px; fill: black; font-weight: normal;">47</tspan></text></g><g transform="translate(523.8912792397247,113.10560501218498)"><text text-anchor="middle" dominant-baseline="text-before-edge" transform="translate(0,-11.5)"><tspan x="0" y="0" dy="0" style="font-family: Arial, sans-serif; font-size: 10px; fill: black; font-weight: bold;">AUS</tspan><tspan x="0" y="0" dy="12" style="font-family: Arial, sans-serif; font-size: 10px; fill: black; font-weight: normal;">2</tspan></text></g></g></g></svg>