<svg xmlns="http://www.w3.org/2000/svg" width="1050" height="850"><rect width="1050" height="850" x="0" y="0" fill="#FFFFFF" id="background"/><g transform="translate(425,425)" id="viz"><path fill="#cccccc" display="" d="M0.9999960341114197,-271.3314905898494A271.3333333333333,271.3333333333333,0,0,1,126.41263743528977,-240.08669866202862L63.232629781790784,-121.15862457397228A136.66666666666666,136.66666666666666,0,0,0,0.9999960341114241,-136.66300811013028Z"><title>Hip Hop</title></path><path fill="#cccccc" display="" d="M128.17886514117444,-239.1483980897601A271.3333333333333,271.3333333333333,0,1,1,-100.15713474453462,-252.17122384908018L-50.90863234617566,-126.8309462647807A136.66666666666666,136.66666666666666,0,1,0,64.9988574876755,-120.22032400170376Z"><title>Punk</title></path><path fill="rgb(105, 189, 169)" display="" d="M-98.29567795537676,-252.9026244883011A271.3333333333333,271.3333333333333,0,0,1,-0.9999960341115132,-271.3314905898494L-0.9999960341114409,-136.66300811013028A136.66666666666666,136.66666666666666,0,0,0,-49.0471755570179,-127.56234690400157Z"><title>Rock</title></path><path fill="rgb(158, 1, 66)" display="" d="M0.999996034111448,-407.9987745176838A408,408,0,0,1,107.30416724839701,-393.63665440495765L71.56828048823667,-263.79744566441155A273.3333333333333,273.3333333333333,0,0,0,0.9999960341114171,-273.3315040734289Z"><title>UNA VELOCIDÁ</title></path><path fill="rgb(66, 136, 181)" display="" d="M109.23245603578218,-393.10592789780077A408,408,0,0,1,190.53038707907783,-360.7799489986892L127.35094805461883,-241.85294528018647A273.3333333333333,273.3333333333333,0,0,0,73.4965692756218,-263.2667191572547Z"><title>Códigos de Honor</title></path><path fill="rgb(94, 79, 162)" display="" d="M192.29661478496254,-359.84164842642065A408,408,0,0,1,269.6130613009399,-306.2234432174252L180.37526770137885,-205.3676554688372A273.3333333333333,273.3333333333333,0,0,0,129.11717576050353,-240.91464470791794Z"><title>Dejame Ser Parte de Esta Locura</title></path><path fill="rgb(209, 60, 75)" display="" d="M271.11090687890487,-304.8981406491318A408,408,0,0,1,375.59332166940646,-159.35387261482475L251.49387872176888,-107.06045057158738A273.3333333333333,273.3333333333333,0,0,0,181.8731132793438,-204.04235290054385Z"><title>¿Por Qué Parar?</title></path><path fill="rgb(209, 60, 75)" display="" d="M376.36995008818764,-157.51082715361238A408,408,0,0,1,406.5669151039473,-34.16640956933753L272.34542144856806,-23.218150811659175A273.3333333333333,273.3333333333333,0,0,0,252.27050714055008,-105.21740511037501Z"><title>I Wanna Destroy You</title></path><path fill="rgb(209, 60, 75)" display="" d="M406.72951163244284,-32.17303789253581A408,408,0,0,1,382.46636429486057,142.0685756353987L256.3422106861894,94.86718153096139A273.3333333333333,273.3333333333333,0,0,0,272.5080179770636,-21.224779134857453Z"><title>Inolvidable</title></path><path fill="rgb(209, 60, 75)" display="" d="M381.7653594144133,143.94169080285192A408,408,0,0,1,268.62043752217346,307.09454659012766L180.20643966014953,205.51581500245663A273.3333333333333,273.3333333333333,0,0,0,255.64120580574215,96.7402966984146Z"><title>Panorama</title></path><path fill="rgb(209, 60, 75)" display="" d="M267.111855245238,308.4076146716339A408,408,0,0,1,60.54718034355353,403.4823898913622L40.88903477939726,270.2576510404846A273.3333333333333,273.3333333333333,0,0,0,178.6978573832141,206.82888308396284Z"><title>Te Quiero Mal</title></path><path fill="rgb(240, 112, 74)" display="" d="M58.56861183084939,403.7743400814461A408,408,0,0,1,-38.78909699820278,406.1519493417015L-25.657570320628878,272.12644156045013A273.3333333333333,273.3333333333333,0,0,0,38.91046626669317,270.5496012305685Z"><title>Un Segundo para los Dos</title></path><path fill="rgb(252, 172, 99)" display="" d="M-40.77955801829897,405.9569283160865A408,408,0,0,1,-142.06857563539884,382.4663642948605L-94.86718153096149,256.3422106861894A273.3333333333333,273.3333333333333,0,0,0,-27.64803134072503,271.9314205348352Z"><title>Encontrarte</title></path><path fill="rgb(254, 221, 141)" display="" d="M-143.94169080285207,381.76535941441324A408,408,0,0,1,-267.11185524523825,308.4076146716337L-178.6978573832142,206.82888308396275A273.3333333333333,273.3333333333333,0,0,0,-96.7402966984147,255.64120580574212Z"><title>No Tengo Nada</title></path><path fill="rgb(251, 248, 176)" display="" d="M-268.6204375221737,307.0945465901275A408,408,0,0,1,-341.2077239255796,223.6991040069795L-228.4057381817782,150.139701201075A273.3333333333333,273.3333333333333,0,0,0,-180.20643966014975,205.51581500245646Z"><title>Nuestras Fronteras</title></path><path fill="rgb(251, 248, 176)" display="" d="M-342.3001810732569,222.02384114598036A408,408,0,0,1,-400.6851094749065,76.9119174451023L-268.3704185437504,51.85006809796227A273.3333333333333,273.3333333333333,0,0,0,-229.49819532945557,148.4644383400758Z"><title>Le Pertenezco a Tus Ojos</title></path><path fill="rgb(251, 248, 176)" display="" d="M-401.0573120133846,74.94686438136466A408,408,0,0,1,-405.8228027039012,-42.09338196855345L-271.9086081008916,-27.871489944867324A273.3333333333333,273.3333333333333,0,0,0,-268.7426210822286,49.885015034224544Z"><title>Cuando Pasan las Madrugadas</title></path><path fill="rgb(251, 248, 176)" display="" d="M-405.61158827036684,-44.08218983660433A408,408,0,0,1,-392.7502951645822,-110.5043241150931L-263.20623221443645,-73.71289191580576A273.3333333333333,273.3333333333333,0,0,0,-271.6973936673573,-29.86029781291828Z"><title>Nuestras Fronteras - En Vivo</title></path><path fill="rgb(251, 248, 176)" display="" d="M-392.2038923724681,-112.42822958619196A408,408,0,0,1,-345.8687075630336,-216.42282025857799L-231.88434196046103,-144.70923627977265A273.3333333333333,273.3333333333333,0,0,0,-262.6598294223223,-75.6367973869047Z"><title>Nuestras Fronteras (En Vivo)</title></path><path fill="rgb(251, 248, 176)" display="" d="M-344.8036633346306,-218.11564306811823A408,408,0,0,1,-292.6976003872053,-284.2395375868246L-196.3180640086491,-190.1849858821854A273.3333333333333,273.3333333333333,0,0,0,-230.81929773205795,-146.40205908931293Z"><title>Puente de Piedra</title></path><path fill="rgb(224, 243, 161)" display="" d="M-291.300762411883,-285.6709047457506A408,408,0,0,1,-212.4743908441554,-348.3082445699572L-142.62562671465514,-233.1717000739218A273.3333333333333,273.3333333333333,0,0,0,-194.92122603332672,-191.61635304111144Z"><title>¿Quién Soñó En Tu Almohada?</title></path><path fill="rgb(169, 221, 162)" display="" d="M-210.76445661147235,-349.345593688071A408,408,0,0,1,-150.13660237023353,-379.37185007420146L-100.8885432153892,-254.03270057019753A273.3333333333333,273.3333333333333,0,0,0,-140.91569248197197,-234.20904919203574Z"><title>Vientos</title></path><path fill="rgb(105, 189, 169)" display="" d="M-148.2751455810761,-380.1032507134222A408,408,0,0,1,-73.64829368546962,-401.29780567207047L-49.66415074336711,-268.7835248709474A273.3333333333333,273.3333333333333,0,0,0,-99.02708642623158,-254.76410120941836Z"><title>Frijolero</title></path><path fill="rgb(105, 189, 169)" display="" d="M-71.68027644078833,-401.6540028051161A408,408,0,0,1,-0.9999960341113167,-407.9987745176838L-0.9999960341113898,-273.3315040734289A273.3333333333333,273.3333333333333,0,0,0,-47.696133498685626,-269.13972200399303Z"><title>Amateur (Rock Me Amadeus)</title></path></g><g id="labels" transform="translate(425,425)" text-anchor="middle"><text transform="rotate(90) translate(68.33333333333333,0) rotate(180)"><tspan x="0" y="4" style="font-family: Arial, sans-serif; font-size: 10px; fill: black; font-weight: normal; font-style: italic;"/></text><text transform="rotate(-76.01036269430051) translate(205,0) rotate(0)"><tspan x="0" y="4" style="font-family: Arial, sans-serif; font-size: 10px; fill: black; font-weight: normal; font-style: italic;">Hip Hop</tspan></text><text transform="rotate(93.26424870466323) translate(205,0) rotate(180)"><tspan x="0" y="4" style="font-family: Arial, sans-serif; font-size: 10px; fill: black; font-weight: normal; font-style: italic;">Punk</tspan></text><text transform="rotate(259.27461139896377) translate(205,0) rotate(180)"><tspan x="0" y="4" style="font-family: Arial, sans-serif; font-size: 10px; fill: black; font-weight: normal; font-style: italic;">Rock</tspan></text><text transform="rotate(-82.30569948186529) translate(341.66666666666663,0) rotate(0)"><tspan x="0" y="-2" style="font-family: Arial, sans-serif; font-size: 10px; fill: black; font-weight: normal;">33</tspan><tspan x="0" y="10" style="font-family: Arial, sans-serif; font-size: 10px; fill: black; font-weight: normal;">UNA VELOCIDÁ</tspan></text><text transform="rotate(-68.3160621761658) translate(341.66666666666663,0) rotate(0)"><tspan x="0" y="-2" style="font-family: Arial, sans-serif; font-size: 10px; fill: black; font-weight: normal;">27</tspan><tspan x="0" y="10" style="font-family: Arial, sans-serif; font-size: 10px; fill: black; font-weight: normal;">Códigos de Honor</tspan></text><text transform="rotate(-55.25906735751295) translate(341.66666666666663,0) rotate(0)"><tspan x="0" y="-2" style="font-family: Arial, sans-serif; font-size: 10px; fill: black; font-weight: normal;">29</tspan><tspan x="0" y="10" style="font-family: Arial, sans-serif; font-size: 10px; fill: black; font-weight: normal;">Dejame Ser Parte de Esta Locura</tspan></text><text transform="rotate(-35.673575129533674) translate(341.66666666666663,0) rotate(0)"><tspan x="0" y="-2" style="font-family: Arial, sans-serif; font-size: 10px; fill: black; font-weight: normal;">55</tspan><tspan x="0" y="10" style="font-family: Arial, sans-serif; font-size: 10px; fill: black; font-weight: normal;">¿Por Qué Parar?</tspan></text><text transform="rotate(-13.75647668393782) translate(341.66666666666663,0) rotate(0)"><tspan x="0" y="-2" style="font-family: Arial, sans-serif; font-size: 10px; fill: black; font-weight: normal;">39</tspan><tspan x="0" y="10" style="font-family: Arial, sans-serif; font-size: 10px; fill: black; font-weight: normal;">I Wanna Destroy You</tspan></text><text transform="rotate(7.92746113989638) translate(341.66666666666663,0) rotate(0)"><tspan x="0" y="-2" style="font-family: Arial, sans-serif; font-size: 10px; fill: black; font-weight: normal;">54</tspan><tspan x="0" y="10" style="font-family: Arial, sans-serif; font-size: 10px; fill: black; font-weight: normal;">Inolvidable</tspan></text><text transform="rotate(34.74093264248707) translate(341.66666666666663,0) rotate(0)"><tspan x="0" y="-2" style="font-family: Arial, sans-serif; font-size: 10px; fill: black; font-weight: normal;">61</tspan><tspan x="0" y="10" style="font-family: Arial, sans-serif; font-size: 10px; fill: black; font-weight: normal;">Panorama</tspan></text><text transform="rotate(65.28497409326428) translate(341.66666666666663,0) rotate(0)"><tspan x="0" y="-2" style="font-family: Arial, sans-serif; font-size: 10px; fill: black; font-weight: normal;">70</tspan><tspan x="0" y="10" style="font-family: Arial, sans-serif; font-size: 10px; fill: black; font-weight: normal;">Te Quiero Mal</tspan></text><text transform="rotate(88.60103626943007) translate(341.66666666666663,0) rotate(0)"><tspan x="0" y="-2" style="font-family: Arial, sans-serif; font-size: 10px; fill: black; font-weight: normal;">30</tspan><tspan x="0" y="10" style="font-family: Arial, sans-serif; font-size: 10px; fill: black; font-weight: normal;">Un Segundo para los Dos</tspan></text><text transform="rotate(103.05699481865287) translate(341.66666666666663,0) rotate(180)"><tspan x="0" y="-2" style="font-family: Arial, sans-serif; font-size: 10px; fill: black; font-weight: normal;">32</tspan><tspan x="0" y="10" style="font-family: Arial, sans-serif; font-size: 10px; fill: black; font-weight: normal;">Encontrarte</tspan></text><text transform="rotate(120.7772020725389) translate(341.66666666666663,0) rotate(180)"><tspan x="0" y="-2" style="font-family: Arial, sans-serif; font-size: 10px; fill: black; font-weight: normal;">44</tspan><tspan x="0" y="10" style="font-family: Arial, sans-serif; font-size: 10px; fill: black; font-weight: normal;">No Tengo Nada</tspan></text><text transform="rotate(138.9637305699482) translate(341.66666666666663,0) rotate(180)"><tspan x="0" y="-2" style="font-family: Arial, sans-serif; font-size: 10px; fill: black; font-weight: normal;">34</tspan><tspan x="0" y="10" style="font-family: Arial, sans-serif; font-size: 10px; fill: black; font-weight: normal;">Nuestras Fronteras</tspan></text><text transform="rotate(158.0829015544042) translate(341.66666666666663,0) rotate(180)"><tspan x="0" y="-2" style="font-family: Arial, sans-serif; font-size: 10px; fill: black; font-weight: normal;">48</tspan><tspan x="0" y="10" style="font-family: Arial, sans-serif; font-size: 10px; fill: black; font-weight: normal;">Le Pertenezco a Tus Ojos</tspan></text><text transform="rotate(177.66839378238348) translate(341.66666666666663,0) rotate(180)"><tspan x="0" y="-2" style="font-family: Arial, sans-serif; font-size: 10px; fill: black; font-weight: normal;">36</tspan><tspan x="0" y="10" style="font-family: Arial, sans-serif; font-size: 10px; fill: black; font-weight: normal;">Cuando Pasan las Madrugadas</tspan></text><text transform="rotate(190.95854922279796) translate(341.66666666666663,0) rotate(180)"><tspan x="0" y="-2" style="font-family: Arial, sans-serif; font-size: 10px; fill: black; font-weight: normal;">21</tspan><tspan x="0" y="10" style="font-family: Arial, sans-serif; font-size: 10px; fill: black; font-weight: normal;">Nuestras Fronteras - En Vivo</tspan></text><text transform="rotate(204.01554404145082) translate(341.66666666666663,0) rotate(180)"><tspan x="0" y="-2" style="font-family: Arial, sans-serif; font-size: 10px; fill: black; font-weight: normal;">35</tspan><tspan x="0" y="10" style="font-family: Arial, sans-serif; font-size: 10px; fill: black; font-weight: normal;">Nuestras Fronteras (En Vivo)</tspan></text><text transform="rotate(218.23834196891198) translate(341.66666666666663,0) rotate(180)"><tspan x="0" y="-2" style="font-family: Arial, sans-serif; font-size: 10px; fill: black; font-weight: normal;">26</tspan><tspan x="0" y="10" style="font-family: Arial, sans-serif; font-size: 10px; fill: black; font-weight: normal;">Puente de Piedra</tspan></text><text transform="rotate(231.5284974093264) translate(341.66666666666663,0) rotate(180)"><tspan x="0" y="-2" style="font-family: Arial, sans-serif; font-size: 10px; fill: black; font-weight: normal;">31</tspan><tspan x="0" y="10" style="font-family: Arial, sans-serif; font-size: 10px; fill: black; font-weight: normal;">¿Quién Soñó En Tu Almohada?</tspan></text><text transform="rotate(243.65284974093265) translate(341.66666666666663,0) rotate(180)"><tspan x="0" y="-2" style="font-family: Arial, sans-serif; font-size: 10px; fill: black; font-weight: normal;">21</tspan><tspan x="0" y="10" style="font-family: Arial, sans-serif; font-size: 10px; fill: black; font-weight: normal;">Vientos</tspan></text><text transform="rotate(254.14507772020727) translate(341.66666666666663,0) rotate(180)"><tspan x="0" y="-2" style="font-family: Arial, sans-serif; font-size: 10px; fill: black; font-weight: normal;">24</tspan><tspan x="0" y="10" style="font-family: Arial, sans-serif; font-size: 10px; fill: black; font-weight: normal;">Frijolero</tspan></text><text transform="rotate(264.8704663212435) translate(341.66666666666663,0) rotate(180)"><tspan x="0" y="-2" style="font-family: Arial, sans-serif; font-size: 10px; fill: black; font-weight: normal;">22</tspan><tspan x="0" y="10" style="font-family: Arial, sans-serif; font-size: 10px; fill: black; font-weight: normal;">Amateur (Rock Me Amadeus)</tspan></text></g><g id="legend" transform="translate(850,20)"><g transform="translate(5,0)"><g class="legendColor" transform="translate(0,0)"><g class="legendCells" transform="translate(0,16)"><g class="cell" transform="translate(0, 0)"><rect class="swatch" height="15" width="15" style="fill: rgb(158, 1, 66);"/><text class="label" transform="translate( 20, 12.5)" font-family="&quot;Arial&quot;, sans-serif" font-size="10px"><tspan x="0" dy="0em">Apache</tspan></text></g><g class="cell" transform="translate(0, 21)"><rect class="swatch" height="15" width="15" style="fill: rgb(209, 60, 75);"/><text class="label" transform="translate( 20, 12.5)" font-family="&quot;Arial&quot;, sans-serif" font-size="10px"><tspan x="0" dy="0em">Cadena Perpetua</tspan></text></g><g class="cell" transform="translate(0, 42)"><rect class="swatch" height="15" width="15" style="fill: rgb(240, 112, 74);"/><text class="label" transform="translate( 20, 12.5)" font-family="&quot;Arial&quot;, sans-serif" font-size="10px"><tspan x="0" dy="0em">Da Skate</tspan></text></g><g class="cell" transform="translate(0, 63)"><rect class="swatch" height="15" width="15" style="fill: rgb(252, 172, 99);"/><text class="label" transform="translate( 20, 12.5)" font-family="&quot;Arial&quot;, sans-serif" font-size="10px"><tspan x="0" dy="0em">Doble Fuerza</tspan></text></g><g class="cell" transform="translate(0, 84)"><rect class="swatch" height="15" width="15" style="fill: rgb(254, 221, 141);"/><text class="label" transform="translate( 20, 12.5)" font-family="&quot;Arial&quot;, sans-serif" font-size="10px"><tspan x="0" dy="0em">Embajada Boliviana</tspan></text></g><g class="cell" transform="translate(0, 105)"><rect class="swatch" height="15" width="15" style="fill: rgb(251, 248, 176);"/><text class="label" transform="translate( 20, 12.5)" font-family="&quot;Arial&quot;, sans-serif" font-size="10px"><tspan x="0" dy="0em">Eterna Inocencia</tspan></text></g><g class="cell" transform="translate(0, 126)"><rect class="swatch" height="15" width="15" style="fill: rgb(224, 243, 161);"/><text class="label" transform="translate( 20, 12.5)" font-family="&quot;Arial&quot;, sans-serif" font-size="10px"><tspan x="0" dy="0em">Expulsados</tspan></text></g><g class="cell" transform="translate(0, 147)"><rect class="swatch" height="15" width="15" style="fill: rgb(169, 221, 162);"/><text class="label" transform="translate( 20, 12.5)" font-family="&quot;Arial&quot;, sans-serif" font-size="10px"><tspan x="0" dy="0em">Fun People</tspan></text></g><g class="cell" transform="translate(0, 168)"><rect class="swatch" height="15" width="15" style="fill: rgb(105, 189, 169);"/><text class="label" transform="translate( 20, 12.5)" font-family="&quot;Arial&quot;, sans-serif" font-size="10px"><tspan x="0" dy="0em">Molotov</tspan></text></g><g class="cell" transform="translate(0, 189)"><rect class="swatch" height="15" width="15" style="fill: rgb(66, 136, 181);"/><text class="label" transform="translate( 20, 12.5)" font-family="&quot;Arial&quot;, sans-serif" font-size="10px"><tspan x="0" dy="0em">Reke</tspan></text></g><g class="cell" transform="translate(0, 210)"><rect class="swatch" height="15" width="15" style="fill: rgb(94, 79, 162);"/><text class="label" transform="translate( 20, 12.5)" font-family="&quot;Arial&quot;, sans-serif" font-size="10px"><tspan x="0" dy="0em">boom boom kid</tspan></text></g></g><text class="legendTitle" font-family="&quot;Arial&quot;, sans-serif" font-size="12px" font-weight="bold"><tspan x="0" dy="0em">Artist_name</tspan></text></g></g></g></svg>